<svg width="257" height="149" viewBox="0 0 257 149" fill="none" xmlns="http://www.w3.org/2000/svg">
<path d="M57.4473 86.9305C57.4473 92.1416 53.5016 97.8389 44.7256 97.8389C33.697 97.8389 29.5887 91.1034 29.5887 79.0758V43.788C29.5887 40.5013 28.3023 38.7338 26.0447 38.7338C23.5482 38.7338 19.9228 40.7393 16.5467 44.107V65.2757C16.5467 69.2055 18.2348 71.13 21.6974 71.13V72.8113H0.926758V71.13C4.38938 71.13 6.07746 69.2055 6.07746 65.2757V25.2629C6.07746 21.333 4.38938 19.4086 0.926758 19.4086V17.7222L16.5467 15.5547V39.691C21.2957 35.042 26.7718 32.2313 31.2005 32.2313C36.8343 32.2313 40.0579 36.3992 40.0579 43.7778V84.3528C40.0579 91.6504 42.2341 94.856 46.4187 94.856C50.2017 94.856 52.1338 91.8074 52.1338 89.4018C52.1338 87.4774 51.1678 86.2721 49.2356 86.2721C47.3035 86.2721 46.1747 87.5534 45.8543 89.3208C44.0849 88.6776 43.1951 86.8342 43.1951 84.9909C43.1951 82.0232 45.29 78.7365 49.8 78.7365C54.7117 78.7517 57.4473 82.6815 57.4473 86.9305Z" fill="white"/>
<path d="M64.4491 32.2412C74.5929 32.2412 81.7571 40.9821 81.7571 53.4909H56.5578C56.9595 60.7075 60.5848 65.8426 66.7016 65.8426C71.5319 65.8426 75.559 63.6751 79.9877 58.783L81.1927 59.6642C78.3758 68.2431 72.8997 73.9404 64.4491 73.9404C52.2918 73.9404 46.1699 65.8426 46.1699 54.6962C46.175 42.1013 54.2239 32.2412 64.4491 32.2412ZM71.6184 49.7231C71.6184 41.0632 68.9591 35.2899 64.9372 35.2899C60.5899 35.2899 56.8832 42.1064 56.4815 50.3662L71.6184 49.7231Z" fill="white"/>
<path d="M103.173 48.1177V42.0254C103.173 37.3764 101.887 35.452 98.8258 35.452C95.6021 35.452 93.6751 38.1006 93.6751 42.6685C93.6751 44.755 91.987 46.4364 89.8921 46.4364C87.7973 46.4364 86.1905 44.755 86.1905 42.6685C86.1905 36.9763 92.3887 32.2412 99.7969 32.2412C108.329 32.2412 113.647 36.6522 113.647 43.8688V61.5937C113.647 68.0912 114.532 70.5777 116.947 70.5777C117.995 70.5777 118.478 70.4967 118.961 70.1776L119.281 71.702C116.785 73.2263 114.13 73.9454 111.71 73.9454C107.765 73.9454 104.704 72.021 103.58 69.0534C101.002 71.859 96.6547 73.9454 93.0344 73.9454C86.8363 73.9454 82.8906 70.4157 82.8906 64.8044C82.8855 56.0585 91.6616 48.9178 103.173 48.1177ZM97.5394 68.7293C99.6342 68.7293 101.648 67.686 103.173 66.0806V50.6042C97.458 51.7285 93.2683 57.2587 93.2683 63.4371C93.2734 66.7238 94.9615 68.7293 97.5394 68.7293Z" fill="white"/>
<path d="M136.665 65.2807C136.665 69.2106 138.353 71.135 141.816 71.135V72.8163H121.045V71.135C124.508 71.135 126.196 69.2106 126.196 65.2807V13.9543C126.196 6.65674 124.02 3.45106 119.835 3.45106C116.052 3.45106 114.12 6.49975 114.12 8.90527C114.12 10.8297 115.086 12.035 117.018 12.035C118.95 12.035 120.079 10.7537 120.4 8.9863C122.169 9.62947 123.059 11.4729 123.059 13.3163C123.059 16.2839 120.964 19.5706 116.454 19.5706C111.542 19.5706 108.807 15.6407 108.807 11.3918C108.807 6.1807 112.752 0.483398 121.528 0.483398C132.557 0.483398 136.665 7.21887 136.665 19.2465V65.2807Z" fill="white"/>
<path d="M141.982 33.3593C148.343 33.3593 154.058 27.3429 154.058 20.6885H156.555V33.3593H165.011V36.565H156.555V59.42C156.555 65.3553 158.487 68.642 161.787 68.642C163.317 68.642 164.604 68.2419 165.895 67.3608L166.699 68.485C163.8 71.9338 159.936 73.9392 156.072 73.9392C150.113 73.9392 146.086 69.4472 146.086 62.9548V36.57H141.982V33.3593Z" fill="white"/>
<path d="M230.943 72.416L215.405 40.1769C213.716 36.7281 211.703 35.0468 208.8 35.0468L208.718 33.3604H230.216V35.0468C226.031 35.0468 226.352 38.0954 227.719 40.901L236.658 59.6642L245.434 40.3389C246.883 37.1332 244.788 35.0468 241.651 35.0468V33.3604H256.066V35.0468C252.924 35.0468 250.915 36.9712 249.141 40.901L233.684 75.0646C228.853 84.5246 220.398 97.8386 208.24 97.8386C201.234 97.8386 197.288 92.1464 197.288 86.9302C197.288 82.6812 200.029 78.7514 204.935 78.7514C209.445 78.7514 211.54 82.0381 211.54 85.0057C211.54 86.8491 210.656 88.6925 208.881 89.3357C208.561 87.5733 207.432 86.287 205.5 86.287C203.568 86.287 202.602 87.4872 202.602 89.4167C202.602 91.8223 204.051 94.4658 209.206 94.4658C217.738 94.4709 226.514 81.0759 230.943 72.416Z" fill="white"/>
<path d="M167.58 71.1268C171.043 71.1268 172.731 69.2024 172.731 65.2726V25.2598C172.731 21.3299 171.038 19.4055 167.58 19.4055V17.7191L183.2 15.5566V39.6929C187.949 35.0439 193.425 32.2333 197.854 32.2333C203.488 32.2333 206.711 36.4012 206.711 43.7798V65.2675C206.711 69.1974 208.399 71.1218 211.862 71.1218V72.8082H191.091V71.1218C194.096 71.1218 199.715 67.5768 197.483 66.1082C196.522 65.4751 196.323 64.442 197.157 63.6571C199.654 61.3072 202.308 59.2917 200.228 55.8834C198.489 53.0373 196.613 54.9465 196.339 52.1916C195.917 47.9983 203.218 39.4397 195.103 37.9103C188.117 36.5936 186.678 44.5749 185.783 48.4035C185.244 50.7077 181.741 48.4136 180.48 52.146C179.595 54.7642 184.481 56.5924 184.436 60.5679C184.415 62.3505 181.603 62.8721 181.888 65.5865C182.122 67.7946 185.33 71.1167 188.356 71.1167V72.8031H167.585V71.1268H167.58Z" fill="white"/>
<path d="M124.676 133.131C126.125 133.131 127.493 133.85 128.382 135.056C126.532 136.018 125.484 137.542 125.484 139.305C125.484 142.672 130.635 144.997 137.962 144.997C144.643 144.997 149.397 142.991 149.397 140.105C149.397 136.737 147.145 135.694 136.757 134.25C125.245 132.645 120.415 129.277 120.415 123.347C120.415 120.298 122.266 117.012 124.762 115.168C122.266 112.52 120.816 108.914 120.816 104.741C120.816 95.5999 127.823 89.2645 137.885 89.2645C139.009 89.2645 140.062 89.3456 141.104 89.5026C140.865 88.8594 140.702 88.1403 140.702 87.4161C140.702 83.7242 144.729 80.5186 149.234 80.5186C152.534 80.5186 154.71 82.1239 154.71 84.5295C154.71 86.697 153.099 88.1403 150.683 88.1403C147.943 88.1403 147.46 86.2159 145.207 86.2159C144.323 86.2159 143.758 86.859 143.758 87.8972C143.758 89.0215 144.404 90.1407 145.528 90.6268C151.161 93.0324 154.868 98.0865 154.868 104.741C154.868 113.963 147.943 120.298 137.88 120.298C133.37 120.298 129.506 119.017 126.608 116.769C125.723 117.65 125.321 118.531 125.321 119.417C125.321 121.742 128.947 123.428 136.914 124.309C151.166 125.915 156.317 129.282 156.317 136.899C156.317 144.84 149.712 148.77 136.752 148.77C125.479 148.77 119.118 145.402 119.118 139.31C119.118 135.861 121.533 133.131 124.676 133.131ZM137.88 117.093C142.146 117.093 145.045 112.039 145.045 104.741C145.045 97.4433 142.146 92.4702 137.88 92.4702C133.614 92.4702 130.635 97.4433 130.635 104.741C130.635 112.039 133.614 117.093 137.88 117.093Z" fill="white"/>
<path d="M177.572 89.2656C188.361 89.2656 197.137 96.9633 197.137 110.115C197.137 123.267 188.361 130.965 177.572 130.965C166.782 130.965 157.925 123.267 157.925 110.115C157.925 96.9684 166.782 89.2656 177.572 89.2656ZM177.572 127.759C182.402 127.759 186.266 121.181 186.266 110.115C186.266 99.0498 182.402 92.4713 177.572 92.4713C172.741 92.4713 168.796 99.0498 168.796 110.115C168.796 121.186 172.741 127.759 177.572 127.759Z" fill="white"/>
</svg>
