<svg width="256" height="149" viewBox="0 0 256 149" fill="none" xmlns="http://www.w3.org/2000/svg">
<path d="M56.5205 86.4468C56.5205 91.658 52.5748 97.3553 43.7988 97.3553C32.7703 97.3553 28.6619 90.6198 28.6619 78.5921V43.3043C28.6619 40.0176 27.3755 38.2502 25.118 38.2502C22.6214 38.2502 18.9961 40.2556 15.6199 43.6234V64.792C15.6199 68.7219 17.308 70.6463 20.7706 70.6463V72.3276H0V70.6463C3.46262 70.6463 5.15071 68.7219 5.15071 64.792V24.7792C5.15071 20.8494 3.46262 18.925 0 18.925V17.2386L15.6199 15.071V39.2073C20.3689 34.5583 25.8451 31.7477 30.2738 31.7477C35.9075 31.7477 39.1311 35.9156 39.1311 43.2942V83.8691C39.1311 91.1667 41.3073 94.3724 45.492 94.3724C49.2749 94.3724 51.2071 91.3237 51.2071 88.9182C51.2071 86.9938 50.241 85.7885 48.3089 85.7885C46.3767 85.7885 45.2479 87.0697 44.9276 88.8372C43.1581 88.194 42.2683 86.3506 42.2683 84.5072C42.2683 81.5395 44.3632 78.2528 48.8732 78.2528C53.785 78.268 56.5205 82.1979 56.5205 86.4468Z" fill="white"/>
<path d="M63.5223 31.7581C73.6661 31.7581 80.8303 40.499 80.8303 53.0077H55.631C56.0327 60.2243 59.658 65.3595 65.7748 65.3595C70.6052 65.3595 74.6322 63.192 79.0609 58.2999L80.2659 59.1811C77.4491 67.7599 71.9729 73.4572 63.5223 73.4572C51.365 73.4572 45.2432 65.3595 45.2432 54.213C45.2482 41.6182 53.2972 31.7581 63.5223 31.7581ZM70.6916 49.2399C70.6916 40.58 68.0324 34.8067 64.0105 34.8067C59.6631 34.8067 55.9564 41.6233 55.5547 49.8831L70.6916 49.2399Z" fill="white"/>
<path d="M102.246 47.6345V41.5422C102.246 36.8932 100.96 34.9688 97.899 34.9688C94.6754 34.9688 92.7483 37.6174 92.7483 42.1854C92.7483 44.2719 91.0602 45.9532 88.9654 45.9532C86.8705 45.9532 85.2638 44.2719 85.2638 42.1854C85.2638 36.4931 91.4619 31.7581 98.8702 31.7581C107.402 31.7581 112.721 36.169 112.721 43.3856V61.1105C112.721 67.608 113.605 70.0946 116.021 70.0946C117.068 70.0946 117.551 70.0135 118.034 69.6945L118.354 71.2188C115.858 72.7432 113.204 73.4623 110.783 73.4623C106.838 73.4623 103.777 71.5379 102.653 68.5702C100.075 71.3758 95.7279 73.4623 92.1077 73.4623C85.9095 73.4623 81.9639 69.9325 81.9639 64.3213C81.9588 55.5753 90.7348 48.4347 102.246 47.6345ZM96.6126 68.2461C98.7075 68.2461 100.721 67.2029 102.246 65.5975V50.1211C96.5313 51.2454 92.3416 56.7755 92.3416 62.9539C92.3466 66.2406 94.0347 68.2461 96.6126 68.2461Z" fill="white"/>
<path d="M135.738 64.7973C135.738 68.7272 137.427 70.6516 140.889 70.6516V72.3329H120.119V70.6516C123.581 70.6516 125.269 68.7272 125.269 64.7973V13.471C125.269 6.17334 123.093 2.96766 118.908 2.96766C115.125 2.96766 113.193 6.01635 113.193 8.42188C113.193 10.3463 114.159 11.5516 116.092 11.5516C118.024 11.5516 119.152 10.2703 119.473 8.5029C121.242 9.14607 122.132 10.9895 122.132 12.8329C122.132 15.8005 120.037 19.0872 115.527 19.0872C110.615 19.0872 107.88 15.1574 107.88 10.9084C107.88 5.6973 111.826 0 120.602 0C131.63 0 135.738 6.73547 135.738 18.7631V64.7973Z" fill="white"/>
<path d="M141.056 32.8759C147.417 32.8759 153.132 26.8595 153.132 20.2051H155.628V32.8759H164.084V36.0816H155.628V58.9366C155.628 64.8719 157.56 68.1586 160.86 68.1586C162.391 68.1586 163.677 67.7585 164.969 66.8774L165.772 68.0016C162.874 71.4504 159.009 73.4558 155.145 73.4558C149.186 73.4558 145.159 68.9638 145.159 62.4714V36.0866H141.056V32.8759V32.8759Z" fill="white"/>
<path d="M230.016 71.9323L214.478 39.6932C212.79 36.2444 210.776 34.5631 207.873 34.5631L207.792 32.8767H229.289V34.5631C225.105 34.5631 225.425 37.6118 226.793 40.4174L235.731 59.1805L244.507 39.8553C245.957 36.6496 243.862 34.5631 240.725 34.5631V32.8767H255.139V34.5631C251.997 34.5631 249.989 36.4875 248.214 40.4174L232.757 74.581C227.927 84.041 219.471 97.355 207.314 97.355C200.307 97.355 196.361 91.6627 196.361 86.4465C196.361 82.1976 199.102 78.2677 204.009 78.2677C208.519 78.2677 210.613 81.5544 210.613 84.5221C210.613 86.3655 209.729 88.2089 207.954 88.8521C207.634 87.0897 206.505 85.8034 204.573 85.8034C202.641 85.8034 201.675 87.0036 201.675 88.9331C201.675 91.3386 203.124 93.9822 208.28 93.9822C216.812 93.9872 225.588 80.5922 230.016 71.9323Z" fill="white"/>
<path d="M166.653 70.6432C170.116 70.6432 171.804 68.7188 171.804 64.7889V24.7761C171.804 20.8463 170.111 18.9218 166.653 18.9218V17.2354L182.273 15.073V39.2093C187.022 34.5603 192.498 31.7496 196.927 31.7496C202.561 31.7496 205.784 35.9175 205.784 43.2962V64.7838C205.784 68.7137 207.473 70.6381 210.935 70.6381V72.3245H190.165V70.6381C193.17 70.6381 198.788 67.0932 196.556 65.6245C195.595 64.9915 195.397 63.9584 196.23 63.1734C198.727 60.8236 201.381 58.808 199.302 55.3998C197.563 52.5536 195.686 54.4629 195.412 51.7079C194.99 47.5147 202.291 38.9561 194.176 37.4267C187.19 36.11 185.751 44.0913 184.856 47.9198C184.317 50.2241 180.814 47.93 179.553 51.6623C178.668 54.2806 183.555 56.1088 183.509 60.0842C183.488 61.8668 180.677 62.3884 180.961 65.1029C181.195 67.3109 184.404 70.6331 187.429 70.6331V72.3195H166.658V70.6432H166.653Z" fill="white"/>
<path d="M123.749 132.648C125.198 132.648 126.566 133.367 127.456 134.572C125.605 135.534 124.557 137.059 124.557 138.821C124.557 142.189 129.708 144.513 137.035 144.513C143.716 144.513 148.47 142.508 148.47 139.621C148.47 136.254 146.218 135.21 135.83 133.767C124.318 132.162 119.488 128.794 119.488 122.864C119.488 119.815 121.339 116.528 123.835 114.685C121.339 112.036 119.89 108.431 119.89 104.258C119.89 95.1165 126.896 88.7811 136.959 88.7811C138.082 88.7811 139.135 88.8622 140.177 89.0192C139.938 88.376 139.776 87.6569 139.776 86.9327C139.776 83.2408 143.803 80.0352 148.308 80.0352C151.607 80.0352 153.784 81.6405 153.784 84.0461C153.784 86.2136 152.172 87.6569 149.757 87.6569C147.016 87.6569 146.533 85.7325 144.281 85.7325C143.396 85.7325 142.831 86.3756 142.831 87.4138C142.831 88.5381 143.477 89.6573 144.601 90.1434C150.235 92.549 153.941 97.6031 153.941 104.258C153.941 113.48 147.016 119.815 136.954 119.815C132.444 119.815 128.579 118.534 125.681 116.285C124.796 117.166 124.395 118.048 124.395 118.934C124.395 121.258 128.02 122.945 135.988 123.826C150.24 125.431 155.39 128.799 155.39 136.416C155.39 144.356 148.785 148.286 135.825 148.286C124.552 148.286 118.191 144.919 118.191 138.826C118.191 135.377 120.607 132.648 123.749 132.648ZM136.954 116.609C141.22 116.609 144.118 111.555 144.118 104.258C144.118 96.9599 141.22 91.9868 136.954 91.9868C132.688 91.9868 129.708 96.9599 129.708 104.258C129.708 111.555 132.688 116.609 136.954 116.609Z" fill="white"/>
<path d="M176.645 88.7822C187.435 88.7822 196.211 96.4799 196.211 109.632C196.211 122.784 187.435 130.481 176.645 130.481C165.855 130.481 156.998 122.784 156.998 109.632C156.998 96.485 165.855 88.7822 176.645 88.7822ZM176.645 127.276C181.475 127.276 185.34 120.697 185.34 109.632C185.34 98.5664 181.475 91.9879 176.645 91.9879C171.815 91.9879 167.869 98.5664 167.869 109.632C167.869 120.702 171.815 127.276 176.645 127.276Z" fill="white"/>
</svg>
